# xmcd
#
# Track frame offsets: 
#        150
#        14489
#        32286
#        63616
#        79352
#        100543
#        116278
#        138973
#        163680
#        177632
#        204616
#
# Disc length: 3009 seconds
#
# Revision: 0
# Processed by: cddbd v1.5.2PL0 Copyright (c) Steve Scherf et al.
# Submitted via: ExactAudioCopy v1.0b1
#
DISCID=8e0bbf0b
DTITLE=Uusi Fantasia - Heimo
DYEAR=2010
DGENRE=Disco
TTITLE0=Super Light Beer
TTITLE1=Barefoot Not Naked (Feat. Eirik Böe)
TTITLE2=Valaanretki
TTITLE3=Growing Pain (Feat. Paula Vesala)
TTITLE4=Marsipaanitanssi
TTITLE5=Liian Myöhään (Feat. Freeman)
TTITLE6=Rhinocerus Ten-Rock
TTITLE7=Ghost Of Cosmos (Feat. Jimi Tenor)
TTITLE8=Hiljainen Hiihtäjä
TTITLE9=Heimo Ihminen
TTITLE10=Sandron Kulma
EXTD=
EXTT0=
EXTT1=
EXTT2=
EXTT3=
EXTT4=
EXTT5=
EXTT6=
EXTT7=
EXTT8=
EXTT9=
EXTT10=
PLAYORDER=
